<svg preserveAspectRatio="none" overflow="visible" style="display: block;" width="22" height="22" viewBox="0 0 22 22" fill="none" xmlns="http://www.w3.org/2000/svg">
<g id="image">
<path id="Vector" d="M3.66667 17.4167V16.0417H5.5V9.075C5.5 7.79167 5.87813 6.64201 6.63438 5.62604C7.39063 4.61007 8.3875 3.97222 9.625 3.7125V3.20833C9.625 2.82639 9.75868 2.50174 10.026 2.23437C10.2934 1.96701 10.6181 1.83333 11 1.83333C11.3819 1.83333 11.7066 1.96701 11.974 2.23437C12.2413 2.50174 12.375 2.82639 12.375 3.20833V3.7125C13.6125 3.97222 14.6094 4.61007 15.3656 5.62604C16.1219 6.64201 16.5 7.79167 16.5 9.075V16.0417H18.3333V17.4167H3.66667ZM11 20.1667C10.4958 20.1667 10.0642 19.9872 9.70521 19.6281C9.34618 19.2691 9.16667 18.8375 9.16667 18.3333H12.8333C12.8333 18.8375 12.6538 19.2691 12.2948 19.6281C11.9358 19.9872 11.5042 20.1667 11 20.1667ZM6.875 16.0417H15.125V9.075C15.125 7.92917 14.724 6.95521 13.9219 6.15313C13.1198 5.35104 12.1458 4.95 11 4.95C9.85417 4.95 8.88021 5.35104 8.07813 6.15313C7.27604 6.95521 6.875 7.92917 6.875 9.075V16.0417Z" fill="#4A2A52"/>
</g>
</svg>
