<svg preserveAspectRatio="none" overflow="visible" style="display: block;" width="9" height="9" viewBox="0 0 9 9" fill="none" xmlns="http://www.w3.org/2000/svg">
<g id="image">
<path id="Vector" d="M4.96406 4.21322C5.09219 4.08453 5.15625 3.92984 5.15625 3.74916C5.15625 3.56847 5.09191 3.41406 4.96322 3.28594C4.83453 3.15781 4.67984 3.09375 4.49916 3.09375C4.31847 3.09375 4.16406 3.15809 4.03594 3.28678C3.90781 3.41547 3.84375 3.57016 3.84375 3.75084C3.84375 3.93153 3.90809 4.08594 4.03678 4.21406C4.16547 4.34219 4.32016 4.40625 4.50084 4.40625C4.68153 4.40625 4.83594 4.34191 4.96406 4.21322ZM4.5 8.25C3.49375 7.39375 2.74219 6.59844 2.24531 5.86406C1.74844 5.12969 1.5 4.45 1.5 3.825C1.5 2.8875 1.80156 2.14062 2.40469 1.58437C3.00781 1.02812 3.70625 0.75 4.5 0.75C5.29375 0.75 5.99219 1.02812 6.59531 1.58437C7.19844 2.14062 7.5 2.8875 7.5 3.825C7.5 4.45 7.25156 5.12969 6.75469 5.86406C6.25781 6.59844 5.50625 7.39375 4.5 8.25Z" fill="#5B2A63"/>
</g>
</svg>
